HIERARCHY
ROOT Hips
{
    OFFSET 0.000000 0.000000 0.000000
    CHANNELS 6 Xposition Yposition Zposition Zrotation Xrotation Yrotation
    JOINT Spine
    {
        OFFSET -0.000000 14.517291 0.000000
        CHANNELS 3 Zrotation Xrotation Yrotation
        JOINT Spine1
        {
            OFFSET -0.000000 37.558300 0.000000
            CHANNELS 3 Zrotation Xrotation Yrotation
            JOINT Neck
            {
                OFFSET -0.000000 37.404057 3.400369
                CHANNELS 3 Zrotation Xrotation Yrotation
                JOINT Head
                {
                    OFFSET -0.000000 24.785618 -3.540803
                    CHANNELS 3 Zrotation Xrotation Yrotation
                    End Site
                    {
                        OFFSET -0.000000 35.408028 0.000000
                    }
                }
            }
            JOINT LeftShoulder
            {
                OFFSET 6.992933 33.973492 -0.192664
                CHANNELS 3 Zrotation Xrotation Yrotation
                JOINT LeftArm
                {
                    OFFSET 21.527611 0.000000 0.000000
                    CHANNELS 3 Zrotation Xrotation Yrotation
                    JOINT LeftForeArm
                    {
                        OFFSET 56.353916 0.000000 0.000000
                        CHANNELS 3 Zrotation Xrotation Yrotation
                        JOINT LeftHand
                        {
                            OFFSET 47.774071 0.000000 0.000000
                            CHANNELS 3 Zrotation Xrotation Yrotation
                            End Site
                            {
                                OFFSET 26.556021 0.000000 0.000000
                            }
                        }
                    }
                }
            }
            JOINT RightShoulder
            {
                OFFSET -7.065357 33.973492 -0.192664
                CHANNELS 3 Zrotation Xrotation Yrotation
                JOINT RightArm
                {
                    OFFSET -21.527611 0.000000 0.000000
                    CHANNELS 3 Zrotation Xrotation Yrotation
                    JOINT RightForeArm
                    {
                        OFFSET -56.353916 0.000000 0.000000
                        CHANNELS 3 Zrotation Xrotation Yrotation
                        JOINT RightHand
                        {
                            OFFSET -47.774071 0.000000 0.000000
                            CHANNELS 3 Zrotation Xrotation Yrotation
                            End Site
                            {
                                OFFSET -26.556021 0.000000 0.000000
                            }
                        }
                    }
                }
            }
        }
    }
    JOINT LeftUpLeg
    {
        OFFSET 17.704014 0.000000 0.000000
        CHANNELS 3 Zrotation Xrotation Yrotation
        JOINT LeftLeg
        {
            OFFSET -0.000000 -81.181816 0.000000
            CHANNELS 3 Zrotation Xrotation Yrotation
            JOINT LeftFoot
            {
                OFFSET -0.000000 -62.821102 0.000000
                CHANNELS 3 Zrotation Xrotation Yrotation
                JOINT LeftToeBase
                {
                    OFFSET -0.000000 -11.507608 26.556021
                    CHANNELS 3 Zrotation Xrotation Yrotation
                    End Site
                    {
                        OFFSET -0.000000 0.000000 7.081605
                    }
                }
            }
        }
    }
    JOINT RightUpLeg
    {
        OFFSET -17.704014 0.000000 0.000000
        CHANNELS 3 Zrotation Xrotation Yrotation
        JOINT RightLeg
        {
            OFFSET -0.000000 -81.181816 0.000000
            CHANNELS 3 Zrotation Xrotation Yrotation
            JOINT RightFoot
            {
                OFFSET -0.000000 -62.821102 0.000000
                CHANNELS 3 Zrotation Xrotation Yrotation
                JOINT RightToeBase
                {
                    OFFSET -0.000000 -11.507608 26.556021
                    CHANNELS 3 Zrotation Xrotation Yrotation
                    End Site
                    {
                        OFFSET -0.000000 0.000000 7.081605
                    }
                }
            }
        }
    }
}
MOTION
Frames:    9
Frame Time:    0.008333
-19.305473    153.371185    -40.645504    -1.737028    0.085375    6.181483    0.259143    1.830230    8.728441    0.239773    1.615905    2.908553    -0.891975    2.737785    -9.543396    10.611244    -4.222665    -7.937044    -1.260448    6.015727    -6.813912    -43.338081    17.064535    -33.193386    1.604639    -30.920599    -126.240730    -6.829433    -27.607571    -10.556833    -2.119682    10.533595    2.130119    37.420856    5.337380    58.345642    -27.557344    -27.757877    58.408562    11.435220    -9.531295    34.189510    9.339873    -31.658335    -17.066999    -10.476981    21.734261    -20.258511    0.224809    -5.548951    38.983231    0.000000    0.000000    0.000000    3.161417    5.623964    -19.219707    2.724506    27.813414    -5.775136    0.426563    -29.785105    -9.223131    0.000000    0.000000    0.000000    
-19.240335    153.325287    -40.485775    -1.742573    0.082019    6.165530    0.237222    1.840774    8.791701    0.256526    1.593281    2.929351    -0.967795    2.783767    -9.603929    10.752303    -4.257636    -7.962866    -1.244305    6.059066    -6.770839    -43.361626    17.066710    -33.227730    1.600145    -30.897442    -126.245529    -6.859884    -27.587978    -10.568390    -2.117991    10.568871    2.100229    37.480186    5.266613    58.356956    -27.537106    -27.711439    58.408566    11.483268    -9.477759    34.180569    9.337511    -31.730675    -17.025364    -10.541549    21.906858    -20.242096    0.159612    -5.315224    38.980495    0.000000    0.000000    0.000000    3.150844    5.684980    -19.251772    2.694409    27.829556    -5.771071    0.482609    -29.837803    -9.161922    0.000000    0.000000    0.000000    
-19.174749    153.273117    -40.307247    -1.755493    0.063658    6.159270    0.228539    1.840539    8.848319    0.272858    1.606939    2.947933    -0.981571    2.791765    -9.658027    10.785180    -4.273158    -8.010424    -1.248123    6.079993    -6.768948    -43.371624    17.054472    -33.216389    1.573571    -30.886055    -126.273575    -6.882988    -27.618746    -10.576691    -2.111080    10.546042    2.114108    37.506016    5.240698    58.273239    -27.526369    -27.726110    58.456787    11.485439    -9.487511    34.149929    9.338353    -31.780960    -17.015623    -10.599637    22.066553    -20.233683    0.065186    -5.149289    39.017948    0.000000    0.000000    0.000000    3.151024    5.772383    -19.279222    2.679261    27.839567    -5.786705    0.546812    -29.891996    -9.115887    0.000000    0.000000    0.000000    
-19.101383    153.218597    -40.124908    -1.756824    0.056291    6.141930    0.216961    1.824356    8.893457    0.288333    1.624848    2.962628    -1.019090    2.835515    -9.684339    10.844948    -4.328514    -8.017827    -1.272394    6.084014    -6.747789    -43.363792    17.088928    -33.176983    1.594631    -30.955294    -126.265633    -6.952880    -27.643951    -10.654910    -2.139616    10.562619    2.153395    37.488628    5.266349    58.235783    -27.648144    -27.800098    58.385338    11.522066    -9.509201    34.151459    9.325094    -31.824718    -16.935932    -10.619324    22.228014    -20.279196    -0.036454    -5.028939    39.038239    0.000000    0.000000    0.000000    3.138431    5.862332    -19.320124    2.645798    27.836332    -5.434058    0.419234    -29.972088    -9.444772    0.000000    0.000000    0.000000    
-19.026136    153.169800    -39.944031    -1.751105    0.055470    6.134956    0.184526    1.828128    8.917446    0.305913    1.615292    2.970228    -1.056165    2.853237    -9.711714    10.917602    -4.358603    -8.026198    -1.281519    6.064961    -6.708426    -43.405888    17.065186    -33.111000    1.582782    -30.878574    -126.301888    -6.808176    -27.598566    -10.593828    -2.167660    10.576260    2.168629    37.510853    5.270200    58.230587    -27.674660    -27.820862    58.366680    11.545073    -9.516409    34.143742    9.301353    -31.893818    -16.881811    -10.675712    22.417154    -20.295351    -0.051383    -4.843377    39.049145    0.000000    0.000000    0.000000    3.110574    5.931818    -19.340796    2.634890    27.854040    -5.460972    0.516087    -30.035801    -9.387047    0.000000    0.000000    0.000000    
-18.949310    153.120117    -39.755955    -1.754112    0.039301    6.097819    0.163587    1.829027    8.972876    0.323856    1.654232    2.988248    -1.089174    2.821772    -9.741630    10.977143    -4.374216    -8.040895    -1.291615    6.052378    -6.658009    -43.441658    17.039526    -33.093365    1.537737    -30.791801    -126.329193    -6.818415    -27.584736    -10.609101    -2.180870    10.574977    2.164796    37.538498    5.268414    58.233585    -27.696533    -27.872051    58.366268    11.593647    -9.537050    34.223648    9.305540    -31.931448    -16.841269    -10.748789    22.594948    -20.245409    -0.075338    -4.708486    39.028461    0.000000    0.000000    0.000000    3.087718    6.008767    -19.333776    2.621883    27.886887    -5.492099    0.589477    -30.092716    -9.313128    0.000000    0.000000    0.000000    
-18.867737    153.064270    -39.547363    -1.760209    0.031250    6.079340    0.157917    1.799397    9.022346    0.315375    1.696015    3.004699    -1.104981    2.843538    -9.780791    11.052526    -4.423306    -8.061894    -1.284452    6.082243    -6.647011    -43.443272    17.021051    -33.087383    1.522329    -30.789179    -126.354111    -6.825668    -27.611912    -10.519539    -2.166488    10.584097    2.159009    37.526638    5.291830    58.231186    -27.778997    -27.914238    58.322979    11.533384    -9.565702    34.240639    9.299562    -31.975389    -16.780558    -10.798656    22.780975    -20.210442    -0.118824    -4.603683    38.988831    0.000000    0.000000    0.000000    3.068158    6.089767    -19.353798    2.604905    27.913986    -5.532552    0.699301    -30.148952    -9.216628    0.000000    0.000000    0.000000    
-18.779902    153.013138    -39.343197    -1.765539    0.018396    6.065724    0.155947    1.808050    9.044458    0.311105    1.678598    3.012162    -1.092926    2.902039    -9.796621    11.057033    -4.483548    -8.073999    -1.314897    6.094054    -6.635808    -43.442909    17.017962    -33.021923    1.508690    -30.807512    -126.363922    -6.855183    -27.650770    -10.538031    -2.162763    10.634341    2.151233    37.509075    5.318573    58.282749    -27.855307    -27.946220    58.239738    11.568649    -9.576030    34.207275    9.277608    -32.028259    -16.732836    -10.833242    22.994165    -20.219603    -0.166509    -4.475804    38.988441    0.000000    0.000000    0.000000    3.043041    6.175053    -19.338076    2.623167    27.939577    -5.560851    0.738053    -30.199072    -9.213200    0.000000    0.000000    0.000000    
-18.691334    152.963730    -39.138515    -1.760768    0.004288    6.037567    0.141316    1.824337    9.078635    0.299948    1.683876    3.023622    -1.107731    2.912158    -9.826325    11.106166    -4.522645    -8.090730    -1.323022    6.070316    -6.612467    -43.473801    16.992649    -32.949783    1.504401    -30.742155    -126.369003    -6.811832    -27.595545    -10.512281    -2.150129    10.655858    2.144581    37.517139    5.321061    58.301765    -27.877214    -27.953218    58.235989    11.608864    -9.558877    34.214466    9.260936    -32.058453    -16.698790    -10.881083    23.171038    -20.248701    -0.175736    -4.302325    39.021049    0.000000    0.000000    0.000000    3.009430    6.249770    -19.318056    2.608493    27.990072    -5.565607    0.805196    -30.247437    -9.175861    0.000000    0.000000    0.000000    
